# xmcd CD database file
#
# Track frame offsets:
#	150
#	24679
#	51751
#	85276
#	109570
#	137170
#	160419
#	182916
#	205189
#	226412
#
# Disc length: 3282 seconds
#
# Revision: 0
# Processed by: cddbd v1.5.1PL2 Copyright (c) Steve Scherf et al.
# Submitted via: CDex 1.51
#
DISCID=850cd00a
DTITLE=the underdogs - dig this
DYEAR=1998
DGENRE=Jazz
TTITLE0=First Second
TTITLE1=Somewhere Else
TTITLE2=Great Ocean Road
TTITLE3=Falling/Flight
TTITLE4=From Now On
TTITLE5=Places I Dream
TTITLE6=One Time Deal
TTITLE7=Ten to Five
TTITLE8=Clear Cut
TTITLE9=Next Exit
EXTD=YEAR: 1998
EXTT0=
EXTT1=
EXTT2=
EXTT3=
EXTT4=
EXTT5=
EXTT6=
EXTT7=
EXTT8=
EXTT9=
PLAYORDER=
